<?xml version="1.0" encoding="utf-8"?>
<!-- Generator: Adobe Illustrator 27.3.1, SVG Export Plug-In . SVG Version: 6.00 Build 0)  -->
<svg version="1.1" id="Layer_1" xmlns="http://www.w3.org/2000/svg" xmlns:xlink="http://www.w3.org/1999/xlink" x="0px" y="0px"
	 viewBox="0 0 300 300" style="enable-background:new 0 0 300 300;" xml:space="preserve">
<path d="M-561.5,137.8c-10.8,0-20.9,2.8-29.6,7.6V65.8c0-4.1-1.7-7.9-4.4-10.7c-2.7-2.7-6.5-4.4-10.7-4.4c-8.3,0-15.1,6.8-15.1,15.1
	v130.2c0.1,13,4.7,25.1,12.3,34.7c10.2,12.9,26,21.6,43.9,22.6c1.2,0.1,2.4,0.1,3.6,0.1c33,0,59.8-25.9,59.8-57.8
	S-528.5,137.8-561.5,137.8 M-530.5,197.8c-1.1,16.1-14.5,28.9-30.9,28.9c-2.6,0-5.2-0.3-7.6-0.9c-13.5-3.4-23.4-15.6-23.4-30.1
	c0-4.1,0.8-8.1,2.3-11.7c1.3-3.3,3.2-6.3,5.6-8.9c5.7-6.4,13.9-10.4,23.2-10.4c17.1,0,31,13.9,31,31
	C-530.3,196.3-530.3,197.1-530.5,197.8"/>
<path d="M-565.2,253.3c-6.2,1-12.8,1.5-19.6,1.5c-2.1,0-4.3-0.1-6.4-0.2c-2.1,0.1-4.2,0.2-6.4,0.2c-25.6,0-47.9-7.3-59.6-18.1
	c-9.4,10.8-27.3,18.1-47.8,18.1c-29.1,0-52.9-14.7-54.7-33.2c-0.1-0.7-0.1-1.5-0.1-2.3V89.4l31.5-59.8v111h38.9v25.1h-38.9v45.8
	c4.5,11.6,15.8,19.8,28.9,19.8c10.7,0,20.1-5.4,25.7-13.6v-61.4c0-7.3,5.1-13.5,11.9-15.2c1.2-0.3,2.5-0.5,3.8-0.5h1.3
	c8.6,0,15.7,7,15.7,15.7v64.4c0,0.5,0,1-0.1,1.5c4.6,2.5,10,4.5,16,6c5,1.2,10.3,2.1,16,2.5C-598.8,243.6-583,252.3-565.2,253.3"/>
<path d="M-380,182.8L-380,182.8c-6.6-25.1-30-43.6-58-43.6c-33.1,0-59.8,25.9-59.8,57.8c0,32,26.8,57.8,59.8,57.8
	c11.4,0,22.1-3.1,31.2-8.5v6.8h28.6v-56.2C-378.1,192.1-378.9,187.2-380,182.8 M-437.9,228.1c-17.1,0-31-13.9-31-31s13.9-31,31-31
	s31,13.9,31,31S-420.8,228.1-437.9,228.1"/>
<path d="M-376.5,118.4c-3.8-7.8-11.3-13.4-19.7-14.8c-10.7-1.9-21.5,1.4-32.3,1.3c-6.6,0-13.3-0.9-19.7-2.2
	c-38.1-8.1-71.5-34.5-111.4-32.8c-3,0.2-6.7,0.6-9.6,1.2l-3.2,0.7c34.5-11.3,68.9,7.6,100.5,19.6c15.9,6.1,32.7,11.1,49.9,10.3
	c8.6-0.4,17.6-2,26.2,0.2C-387.1,103.9-379.6,110.1-376.5,118.4"/>
<path d="M-462,131.9c7.5-15.8,29.9-20.7,44.2-11.3c4.8,3,8.9,7.3,10.9,12.5c-3.4-4.3-7.7-7.5-12.4-9.8
	C-433.5,116-451.5,119.8-462,131.9"/>
<path d="M-471.9,129.8c-17.5,2.8-35.2-1.4-52.4-4.4c-17.2-3.4-34.5-4.5-51.7-0.5C-541.8,109.9-506.6,129.1-471.9,129.8"/>
<path d="M-573.5,93.8c17.9-4.7,37.2-3.4,54.6,2.5c10,3.4,20.8,7.7,31.5,8.4c-14.8,2.2-28.9-4.6-43-7.5
	C-544.5,93.9-558.8,93.1-573.5,93.8"/>
<path d="M-136.7,28.6h-171.5c-34.5,0-62.5-28-62.5-62.5v-171.5c0-34.5,28-62.5,62.5-62.5h171.5c34.5,0,62.5,28,62.5,62.5v171.5
	C-74.2,0.6-102.2,28.6-136.7,28.6z"/>
<path d="M289,152.5c0,23.6-6.2,45.4-17.4,65.9c-9.8,17.4-22.7,31.6-38.3,43.6c-16,12-34.3,20.5-54.3,24.5c-10.7,2.2-20.9,3.1-32,3.1
	s-22.3-1.3-32.9-4.9c-10.7-3.6-21.4-7.1-31.2-12.5c-8.9-4.9-16.5-11.6-24.5-17.8c-8.9-6.7-15.6-15.6-21.8-24
	C29.1,220.1,23.8,209,19.3,197c-5.3-14.2-8-28.9-8.5-43.6c-0.4-8.9,0.4-17.8,1.8-26.3C14.9,112,20.2,97.3,27.4,84
	C32.3,75.1,38,67,44.7,59.5c13.8-17.4,32-29.4,52.1-38.3c20.9-9.3,43.2-12,65.9-10.2c11.6,0.9,22.7,3.1,33.4,7.1
	c20.5,7.1,37.8,18.7,53,33.8c8.9,8.9,16,18.7,22.3,29.4s10.7,21.8,13.8,33.4c2.2,8,2.7,16.9,4,24.9C289.5,144,289,148.5,289,152.5
	 M30.5,126.2c36.5-24,76.5-33.4,119.7-33.4s83.2,8.9,120.2,32.9c-7.6-44.5-48.1-93.5-111.3-98.3C95.9,23,42,67.5,30.5,126.2
	 M240.1,164.9c-7.6-0.4-19.1,3.6-26.7,7.6c-13.8,7.6-25.8,17.4-35.2,30.3c-7.1,9.3-12,20-13.4,32c-0.9,11.1,5.3,20.5,16,23.1
	c6.7,1.8,13.4,0.9,19.6-0.9c14.7-4.9,27.6-12.9,38.7-24c11.1-11.1,19.1-23.6,22.3-38.7C265.9,177.4,256.5,164.9,240.1,164.9
	 M104.8,258c22.3,1.3,32.5-9.3,29.8-25.4c-0.9-5.8-2.7-11.1-4.9-16.5c-9.8-20.5-25.4-35.6-45.4-45.4c-6.7-3.1-14.2-4.9-21.4-5.8
	c-11.6-1.8-24,5.3-24.9,20c-0.4,9.8,3.1,18.2,7.1,26.7c5.3,10.2,12.9,18.7,21.4,26.3C79,249.1,93.2,257.1,104.8,258 M112.8,150.3
	c-1.3,20.5,18.2,37.4,36.5,37.4c22.3,0,38.7-16,38.7-37.8c0-20.5-16.9-37.8-38.3-37.4C129.3,112.4,111.9,129.3,112.8,150.3"/>
</svg>
