<?xml version="1.0" encoding="utf-8"?>
<!-- Generator: Adobe Illustrator 27.3.1, SVG Export Plug-In . SVG Version: 6.00 Build 0)  -->
<svg version="1.1" id="Layer_1" xmlns="http://www.w3.org/2000/svg" xmlns:xlink="http://www.w3.org/1999/xlink" x="0px" y="0px"
	 viewBox="0 0 393.5 243.1" style="enable-background:new 0 0 393.5 243.1;" xml:space="preserve">
<g>
	<path d="M205.2,117.3c-10.8,0-20.9,2.8-29.6,7.6V45.4c0-4.1-1.7-7.9-4.4-10.7c-2.7-2.7-6.5-4.4-10.7-4.4c-8.3,0-15.1,6.8-15.1,15.1
		v130.2c0.1,13,4.7,25.1,12.3,34.7c10.2,12.9,26,21.6,43.9,22.6c1.2,0.1,2.4,0.1,3.6,0.1c33,0,59.8-25.9,59.8-57.8
		S238.2,117.3,205.2,117.3 M236.3,177.3c-1.1,16.1-14.5,28.9-30.9,28.9c-2.6,0-5.2-0.3-7.6-0.9c-13.5-3.4-23.4-15.6-23.4-30.1
		c0-4.1,0.8-8.1,2.3-11.7c1.3-3.3,3.2-6.3,5.6-8.9c5.7-6.4,13.9-10.4,23.2-10.4c17.1,0,31,13.9,31,31
		C236.4,175.9,236.4,176.6,236.3,177.3"/>
	<path d="M201.6,232.9c-6.2,1-12.8,1.5-19.6,1.5c-2.1,0-4.3-0.1-6.4-0.2c-2.1,0.1-4.2,0.2-6.4,0.2c-25.6,0-47.9-7.3-59.6-18.1
		c-9.4,10.8-27.3,18.1-47.8,18.1c-29.1,0-52.9-14.7-54.7-33.2c-0.1-0.7-0.1-1.5-0.1-2.3V69L38.5,9.2v111h38.9v25.1H38.5v45.8
		c4.5,11.6,15.8,19.8,28.9,19.8c10.7,0,20.1-5.4,25.7-13.6v-61.4c0-7.3,5.1-13.5,11.9-15.2c1.2-0.3,2.5-0.5,3.8-0.5h1.3
		c8.6,0,15.7,7,15.7,15.7v64.4c0,0.5,0,1-0.1,1.5c4.6,2.5,10,4.5,16,6c5,1.2,10.3,2.1,16,2.5C167.9,223.2,183.7,231.9,201.6,232.9"
		/>
	<path d="M386.7,162.3L386.7,162.3c-6.6-25.1-30-43.6-58-43.6c-33.1,0-59.8,25.9-59.8,57.8c0,32,26.8,57.8,59.8,57.8
		c11.4,0,22.1-3.1,31.2-8.5v6.8h28.6v-56.2C388.6,171.6,387.9,166.8,386.7,162.3 M328.9,207.6c-17.1,0-31-13.9-31-31
		c0-17.1,13.9-31,31-31c17.1,0,31,13.9,31,31C359.9,193.7,346,207.6,328.9,207.6"/>
	<path d="M140.7,84.8c0,5.3-1.4,10.2-3.9,14.8c-2.2,3.9-5.1,7.1-8.6,9.8c-3.6,2.7-7.7,4.6-12.2,5.5c-2.4,0.5-4.7,0.7-7.2,0.7
		c-2.5,0-5-0.3-7.4-1.1c-2.4-0.8-4.8-1.6-7-2.8c-2-1.1-3.7-2.6-5.5-4c-2-1.5-3.5-3.5-4.9-5.4c-1.7-2.3-2.9-4.8-3.9-7.5
		c-1.2-3.2-1.8-6.5-1.9-9.8c-0.1-2,0.1-4,0.4-5.9c0.5-3.4,1.7-6.7,3.3-9.7c1.1-2,2.4-3.8,3.9-5.5c3.1-3.9,7.2-6.6,11.7-8.6
		c4.7-2.1,9.7-2.7,14.8-2.3c2.6,0.2,5.1,0.7,7.5,1.6c4.6,1.6,8.5,4.2,11.9,7.6c2,2,3.6,4.2,5,6.6c1.4,2.4,2.4,4.9,3.1,7.5
		c0.5,1.8,0.6,3.8,0.9,5.6C140.8,82.9,140.7,83.9,140.7,84.8 M82.6,78.9c8.2-5.4,17.2-7.5,26.9-7.5c9.7,0,18.7,2,27,7.4
		c-1.7-10-10.8-21-25-22.1C97.3,55.7,85.2,65.7,82.6,78.9 M129.7,87.6c-1.7-0.1-4.3,0.8-6,1.7c-3.1,1.7-5.8,3.9-7.9,6.8
		c-1.6,2.1-2.7,4.5-3,7.2c-0.2,2.5,1.2,4.6,3.6,5.2c1.5,0.4,3,0.2,4.4-0.2c3.3-1.1,6.2-2.9,8.7-5.4c2.5-2.5,4.3-5.3,5-8.7
		C135.5,90.4,133.4,87.6,129.7,87.6 M99.3,108.5c5,0.3,7.3-2.1,6.7-5.7c-0.2-1.3-0.6-2.5-1.1-3.7c-2.2-4.6-5.7-8-10.2-10.2
		c-1.5-0.7-3.2-1.1-4.8-1.3c-2.6-0.4-5.4,1.2-5.6,4.5c-0.1,2.2,0.7,4.1,1.6,6c1.2,2.3,2.9,4.2,4.8,5.9
		C93.5,106.5,96.7,108.3,99.3,108.5 M101.1,84.3c-0.3,4.6,4.1,8.4,8.2,8.4c5,0,8.7-3.6,8.7-8.5c0-4.6-3.8-8.5-8.6-8.4
		C104.8,75.8,100.9,79.6,101.1,84.3"/>
	<path d="M390.3,98c-3.8-7.8-11.3-13.4-19.7-14.8c-10.7-1.9-21.5,1.4-32.3,1.3c-6.6,0-13.3-0.9-19.7-2.2
		c-38.1-8.1-71.5-34.5-111.4-32.8c-3,0.2-6.7,0.6-9.6,1.2l-3.2,0.7c34.5-11.3,68.9,7.6,100.5,19.6c15.9,6.1,32.7,11.1,49.9,10.3
		c8.6-0.4,17.6-2,26.2,0.2C379.6,83.5,387.1,89.7,390.3,98"/>
	<path d="M304.8,111.4c7.5-15.8,29.9-20.7,44.2-11.3c4.8,3,8.9,7.3,10.9,12.5c-3.4-4.3-7.7-7.5-12.4-9.8
		C333.3,95.6,315.3,99.4,304.8,111.4"/>
	<path d="M294.9,109.3c-17.5,2.8-35.2-1.4-52.4-4.4c-17.2-3.4-34.5-4.5-51.7-0.5C224.9,89.5,260.1,108.6,294.9,109.3"/>
	<path d="M193.3,73.4c17.9-4.7,37.2-3.4,54.6,2.5c10,3.4,20.8,7.7,31.5,8.4c-14.8,2.2-28.9-4.6-43-7.5
		C222.3,73.5,207.9,72.7,193.3,73.4"/>
</g>
</svg>
